<svg xmlns="http://www.w3.org/2000/svg"  viewBox="0 0 30 30" width="30px" height="30px" baseProfile="basic"><polygon fill="#b8f9ff" points="19,2 11,2 10,5 5,5 5,8 6,8 7,21 8.5,27 21.5,27 23,21 24,8 25,8 25,5 20,5"/><polygon fill="#65e4f0" points="24,8 19,14 14,8"/><polygon fill="#8af6ff" points="19,14 14,8 11,19"/><polygon fill="#51d2e0" points="5,5 25,5 5,8"/><polygon fill="#43c0cc" points="25,5 25,8 5,8"/><polygon fill="#65e4f0" points="11,19 8.5,27 7,21"/><polygon fill="#43c0cc" points="23,21 21.5,27 8.5,27"/><polygon fill="#51d2e0" points="24,8 23,21 19,14"/><polygon fill="#65e4f0" points="11,19 19,14 23,21"/><polygon fill="#b8f9ff" points="14,8 6,8 11,19"/><polygon fill="#8af6ff" points="7,21 6,8 11,19"/><polygon fill="#65e4f0" points="10,5 11,2 14,5"/><polygon fill="#8af6ff" points="11,2 19,2 14,5"/><polygon fill="#65e4f0" points="19,2 20,5 14,5"/><polygon fill="#51d2e0" points="11,19 23,21 8.5,27"/></svg>